<svg xmlns="http://www.w3.org/2000/svg" viewBox="0 0 100 100">
  <rect width="100" height="100" fill="#ffffff"/>
  <path fill="#000000" d="M20,20h10v10H20V20z M40,20h10v10H40V20z M20,40h10v10H20V40z M30,40h10v10H30V40z M40,50h10v10H40V50z M50,20h10v10H50V20z M60,20h10v10H60V20z M70,20h10v10H70V20z M80,20h10v10H80V20z M20,60h10v10H20V60z M30,60h10v10H30V60z M40,60h10v10H40V60z M50,60h10v10H50V60z M60,60h10v10H60V60z M70,60h10v10H70V60z M80,60h10v10H80V60z M20,80h10v10H20V80z M40,80h10v10H40V80z M50,70h10v10H50V70z M60,70h10v10H60V70z M70,70h10v10H70V70z M80,70h10v10H80V70z"/>
</svg>